<svg version="1.0" xmlns="http://www.w3.org/2000/svg"
 width="448.000000pt" height="448.000000pt" viewBox="0 0 448.000000 448.000000"
 preserveAspectRatio="xMidYMid meet">

<g transform="translate(0.000000,448.000000) scale(0.100000,-0.100000)"
fill="#000000" stroke="none">
<path d="M409 4382 c-167 -44 -295 -192 -320 -369 -6 -41 -8 -762 -7 -1818 3
-1967 -4 -1790 80 -1915 52 -78 138 -143 225 -170 64 -20 90 -20 1853 -20
1712 0 1791 1 1848 18 119 38 218 127 274 247 l23 50 0 1836 0 1835 -38 76
c-61 124 -170 209 -305 237 -38 8 -555 11 -1810 10 -1624 0 -1762 -1 -1823
-17z m3421 -782 l0 -60 -60 0 -60 0 0 53 c0 30 3 57 7 60 3 4 30 7 60 7 l53 0
0 -60z m-280 -190 l0 -110 -105 0 -105 0 0 110 0 110 105 0 105 0 0 -110z
m460 -15 l0 -45 -45 0 -45 0 0 45 0 45 45 0 45 0 0 -45z m-762 -167 l-3 -133
-130 0 -130 0 -3 119 c-1 66 0 126 2 133 4 10 38 13 136 13 l131 0 -3 -132z
m552 -73 l0 -85 -85 0 -85 0 0 85 0 85 85 0 85 0 0 -85z m-1100 -290 l0 -285
-530 0 -530 0 0 -590 0 -590 890 0 890 0 0 -285 0 -285 -1180 0 -1180 0 0
1160 0 1160 820 0 820 0 0 -285z m840 50 l0 -106 -102 3 -103 3 -3 103 -3 102
106 0 105 0 0 -105z m-410 -160 l0 -175 -172 2 -173 3 -3 160 c-1 87 0 165 2
172 4 10 46 13 176 13 l170 0 0 -175z"/>
</g>
</svg>
